<?xml version="1.0" encoding="UTF-8" standalone="no"?>
<svg xmlns="http://www.w3.org/2000/svg">
  <g>
    <g style="clip-rule:nonzero;fill:#0a50a1;fill-rule:nonzero;stroke:#0a50a1;stroke-width:10;stroke-linejoin:round;stroke-miterlimit:4"
       transform="matrix(0.35277778,0,0,0.35277778,9.3552896,10.261038)">
      <g>
        <g>
          <g>
            <path d="M 31.421,5.494 24.001,17.222 16.16,5.428 5,5.327 24,34.306 42,5.589 31.421,5.494 Z"/>
            <path d="m 95.921,29.067 c -2.69,3.215 -6.733,5.26 -11.254,5.26 C 76.566,34.328 70,27.761 70,19.661 c 0,-8.1 6.566,-14.667 14.667,-14.667 4.598,0 8.7,2.115 11.39,5.425 l -6.058,5.91 c -1.111,-1.774 -3.084,-2.954 -5.332,-2.954 -3.472,0 -6.286,2.814 -6.286,6.286 0,3.472 2.814,6.286 6.286,6.286 2.248,0 4.221,-1.18 5.332,-2.954 l 5.922,6.075 z"/>
            <path d="m 120.667,5.436 -21.417,0 -1.866,10 7.575,0 0,18.628 10,0 0,-18.628 7.574,0 -1.866,-10 z"/>
            <path d="m 126.084,5.468 0,28.539 10.25,0 0,-20.789 4.5,0 c 1.375,0.875 1.25,2 1.25,2 0.75,4.25 -3.625,3.5 -3.625,3.5 l 0,8.375 4.375,6.949 12,0 -6.625,-11.824 c 2,-1 3.375,-3 3.375,-3 1.375,-1.875 0.75,-6.375 0.75,-6.375 -0.625,-7.5 -8.125,-7.375 -8.125,-7.375 l -18.125,0 z"/>
            <path d="m 180.635,13.592 -2.625,-8.217 -13.551,0 -8.125,0 0,8.217 0,12.263 0,4.677 0,3.54 21.676,0 2.625,-8.217 -16.176,0 0,-3.021 8.219,0 0,-6.475 -8.219,0 0,-2.767 16.176,0 z"/>
            <path d="m 68.438,13.592 -2.654,-8.217 -13.706,0 -8.217,0 0,8.217 0,12.263 0,4.677 0,3.54 21.922,0 2.654,-8.217 -16.359,0 0,-3.021 8.313,0 0,-6.475 -8.313,0 0,-2.768 16.359,0 z"/>
            <path d="m 216.248,5.488 -12.279,0.07 -5.538,6.766 -5.54,-6.766 -12.279,-0.07 11.705,14.302 -11.703,14.293 12.291,-0.07 5.526,-6.752 5.525,6.752 12.291,0.07 L 204.543,19.79 216.248,5.488 Z"/>
          </g>
          <g style="fill:none;stroke:#ffffff;stroke-width:1;stroke-linejoin:miter">
            <path d="M 31.421,5.494 24.001,17.222 16.16,5.428 5,5.327 24,34.306 42,5.589 31.421,5.494 Z"/>
            <path d="m 95.921,29.067 c -2.69,3.215 -6.733,5.26 -11.254,5.26 C 76.566,34.328 70,27.761 70,19.661 c 0,-8.1 6.566,-14.667 14.667,-14.667 4.598,0 8.7,2.115 11.39,5.425 l -6.058,5.91 c -1.111,-1.774 -3.084,-2.954 -5.332,-2.954 -3.472,0 -6.286,2.814 -6.286,6.286 0,3.472 2.814,6.286 6.286,6.286 2.248,0 4.221,-1.18 5.332,-2.954 l 5.922,6.075 z"/>
            <path
               d="m 120.667,5.436 -21.417,0 -1.866,10 7.575,0 0,18.628 10,0 0,-18.628 7.574,0 -1.866,-10 z"/>
            <path
               d="m 126.084,5.468 0,28.539 10.25,0 0,-20.789 4.5,0 c 1.375,0.875 1.25,2 1.25,2 0.75,4.25 -3.625,3.5 -3.625,3.5 l 0,8.375 4.375,6.949 12,0 -6.625,-11.824 c 2,-1 3.375,-3 3.375,-3 1.375,-1.875 0.75,-6.375 0.75,-6.375 -0.625,-7.5 -8.125,-7.375 -8.125,-7.375 l -18.125,0 z"/>
            <path
               d="m 180.635,13.592 -2.625,-8.217 -13.551,0 -8.125,0 0,8.217 0,12.263 0,4.677 0,3.54 21.676,0 2.625,-8.217 -16.176,0 0,-3.021 8.219,0 0,-6.475 -8.219,0 0,-2.767 16.176,0 z"/>
            <path
               d="m 68.438,13.592 -2.654,-8.217 -13.706,0 -8.217,0 0,8.217 0,12.263 0,4.677 0,3.54 21.922,0 2.654,-8.217 -16.359,0 0,-3.021 8.313,0 0,-6.475 -8.313,0 0,-2.768 16.359,0 z"/>
            <path
               d="m 216.248,5.488 -12.279,0.07 -5.538,6.766 -5.54,-6.766 -12.279,-0.07 11.705,14.302 -11.703,14.293 12.291,-0.07 5.526,-6.752 5.525,6.752 12.291,0.07 L 204.543,19.79 216.248,5.488 Z"/>
          </g>
          <path
             d="m 81.547,19.66 c 0,-1.933 1.566,-3.5 3.5,-3.5 1.933,0 3.5,1.567 3.5,3.5 0,1.933 -1.567,3.5 -3.5,3.5 -1.934,0 -3.5,-1.567 -3.5,-3.5 z"
             style="stroke:none"/>
          <path
             d="m 186.834,23.16 -10,0 0,-6.667 10,0 0,6.667 z"
             style="stroke:none"/>
        </g>
        <path
           d="m 114.502,39.062 12.286,-0.059 -2.396,-2.801 0,-18.37 -7.464,0 0,18.602 -2.427,2.629 z"
           style="stroke:none"/>
      </g>
    </g>
  </g>
</svg>
